<svg width="29" height="29" viewBox="0 0 29 29" fill="none" xmlns="http://www.w3.org/2000/svg">
<path d="M28.7638 8.04297C28.6807 7.92491 28.5704 7.82855 28.4423 7.76201C28.3142 7.69546 28.1719 7.66068 28.0275 7.66059H8.79419L7.3383 2.63996C6.76737 0.662976 5.41068 0.449554 4.85424 0.449554H0.972322C0.474763 0.449554 0.0723877 0.852383 0.0723877 1.34946C0.0723877 1.84654 0.475216 2.24934 0.972294 2.24934H4.85376C4.97656 2.24934 5.35129 2.24934 5.60688 3.13248L10.6153 21.5389C10.724 21.9272 11.0779 22.1954 11.4816 22.1954H23.7151C24.0948 22.1954 24.4337 21.9575 24.562 21.6L28.8739 8.86494C28.9732 8.58898 28.9319 8.28177 28.7638 8.04297ZM21.297 24.0193C20.0454 24.0193 19.0313 25.0334 19.0313 26.2849C19.0313 27.5365 20.0454 28.5506 21.297 28.5506C22.5485 28.5506 23.5626 27.5365 23.5626 26.2849C23.5626 25.0334 22.5485 24.0193 21.297 24.0193ZM13.1407 24.0193C11.8892 24.0193 10.8751 25.0334 10.8751 26.2849C10.8751 27.5365 11.8892 28.5506 13.1407 28.5506C14.3922 28.5506 15.4063 27.5365 15.4063 26.2849C15.4063 25.0334 14.3922 24.0193 13.1407 24.0193Z" fill="#545B75"/>
</svg>
